<?xml version="1.0" encoding="utf-8"?>
<!-- Generator: Adobe Illustrator 18.0.0, SVG Export Plug-In . SVG Version: 6.00 Build 0)  -->
<!DOCTYPE svg PUBLIC "-//W3C//DTD SVG 1.1//EN" "http://www.w3.org/Graphics/SVG/1.1/DTD/svg11.dtd">
<svg version="1.1" id="Layer_1" xmlns="http://www.w3.org/2000/svg" xmlns:xlink="http://www.w3.org/1999/xlink" x="0px" y="0px"
	 viewBox="0 0 49.3 49.4" enable-background="new 0 0 49.3 49.4" xml:space="preserve">
<g>
	<g>
		<path fill="#E8511B" d="M47.6,4H37.2V1.7c0-0.9-0.7-1.7-1.7-1.7c-0.9,0-1.7,0.7-1.7,1.7V4H15.4V1.7c0-0.9-0.7-1.7-1.7-1.7
			c-0.9,0-1.7,0.7-1.7,1.7V4H1.7C0.7,4,0,4.7,0,5.6v42.1c0,0.9,0.7,1.7,1.7,1.7h46c0.9,0,1.7-0.8,1.7-1.7V5.6
			C49.3,4.7,48.6,4,47.6,4z M3.3,7.3h8.7v2.3c0,0.9,0.8,1.7,1.7,1.7c0.9,0,1.7-0.7,1.7-1.7V7.3h18.5v2.3c0,0.9,0.7,1.7,1.7,1.7
			c0.9,0,1.7-0.7,1.7-1.7V7.3H46v9.2H3.3V7.3z M46,46.1H3.3V19.9H46V46.1z"/>
	</g>
</g>
</svg>
