<?xml version="1.0" encoding="utf-8"?>
<!-- Generator: Adobe Illustrator 18.0.0, SVG Export Plug-In . SVG Version: 6.00 Build 0)  -->
<!DOCTYPE svg PUBLIC "-//W3C//DTD SVG 1.1//EN" "http://www.w3.org/Graphics/SVG/1.1/DTD/svg11.dtd">
<svg version="1.1" id="Layer_1" xmlns="http://www.w3.org/2000/svg" xmlns:xlink="http://www.w3.org/1999/xlink" x="0px" y="0px"
	 viewBox="0 0 63.5 54.6" enable-background="new 0 0 63.5 54.6" xml:space="preserve">
<g>
	<path fill="#E8511B" d="M14.8,54.6C14.8,54.6,14.8,54.6,14.8,54.6c-1.8,0-2.9-0.8-3.6-1.4c-1.5-1.6-1.4-3.9-1.4-4.2l0-4l-0.5,0
		C4.2,45,0,40.8,0,35.7V20.9c0-5.2,4.2-9.4,9.4-9.4h33.2c5.2,0,9.4,4.2,9.4,9.4v14.7c0,5.2-4.2,9.4-9.4,9.4H26.7l-6.3,6.4
		C19.5,52.5,17.6,54.6,14.8,54.6z M9.4,15.4c-3.1,0-5.6,2.5-5.6,5.6v14.7c0,3.1,2.5,5.6,5.6,5.6l2.4,0.1c1,0,1.9,0.9,1.9,1.9v5.9
		c0,0.4,0.1,1.1,0.4,1.5c0.1,0.1,0.2,0.2,0.8,0.2v1.9l0-1.9c1.1,0,2.1-1.1,2.8-1.9l0.4-0.4l6.6-6.7c0.4-0.4,0.8-0.6,1.4-0.6h16.6
		c3.1,0,5.6-2.5,5.6-5.6V20.9c0-3.1-2.5-5.6-5.6-5.6H9.4z"/>
	<path fill="#E8511B" d="M55.1,29.4c-1.1,0-1.9-0.9-1.9-1.9c0-1.1,0.9-1.9,1.9-1.9c2.5,0,4.5-2,4.5-4.5V10.9c0-5-2.1-7.1-7.1-7.1
		h-26c-2.5,0-4.5,2-4.5,4.5c0,1.1-0.9,1.9-1.9,1.9c-1.1,0-1.9-0.9-1.9-1.9C18.2,3.7,22,0,26.6,0h26c7.1,0,10.9,3.8,10.9,10.9V21
		C63.5,25.6,59.7,29.4,55.1,29.4z"/>
	<path fill="#E8511B" d="M35.9,27H13.3c-1.1,0-1.9-0.9-1.9-1.9c0-1.1,0.9-1.9,1.9-1.9h22.5c1.1,0,1.9,0.9,1.9,1.9
		C37.8,26.2,36.9,27,35.9,27z"/>
	<path fill="#E8511B" d="M26,35.3H13.3c-1.1,0-1.9-0.9-1.9-1.9c0-1.1,0.9-1.9,1.9-1.9H26c1.1,0,1.9,0.9,1.9,1.9
		C27.9,34.4,27,35.3,26,35.3z"/>
</g>
</svg>
