<?xml version="1.0" encoding="utf-8"?>
<!-- Generator: Adobe Illustrator 18.0.0, SVG Export Plug-In . SVG Version: 6.00 Build 0)  -->
<!DOCTYPE svg PUBLIC "-//W3C//DTD SVG 1.1//EN" "http://www.w3.org/Graphics/SVG/1.1/DTD/svg11.dtd">
<svg version="1.1" id="Layer_1" xmlns="http://www.w3.org/2000/svg" xmlns:xlink="http://www.w3.org/1999/xlink" x="0px" y="0px"
	 viewBox="0 0 53.8 54.1" enable-background="new 0 0 53.8 54.1" xml:space="preserve">
<g>
	<path fill="#E8511B" stroke="#E8511B" stroke-width="2.2536" stroke-miterlimit="10" d="M50.2,2.4c-1.1-0.8-2.3-1.2-3.7-1.2
		c-1.9,0-3.7,0.9-4.9,2.4L18.9,33.8l-7.3-7.3c-1.2-1.2-2.7-1.8-4.3-1.8s-3.2,0.6-4.3,1.8c-2.4,2.4-2.4,6.3,0,8.7l17.3,17.3L51.4,11
		C53.4,8.2,52.9,4.4,50.2,2.4z M49.5,9.5L19.9,48.7L4.7,33.4c-1.4-1.4-1.4-3.8,0-5.2c0.7-0.7,1.6-1.1,2.6-1.1s1.9,0.4,2.6,1.1
		l9.3,9.3L43.6,5c0.7-0.9,1.8-1.5,2.9-1.5c0.8,0,1.6,0.3,2.2,0.7C50.3,5.5,50.7,7.9,49.5,9.5z"/>
</g>
</svg>
