<?xml version="1.0" encoding="utf-8"?>
<!-- Generator: Adobe Illustrator 18.0.0, SVG Export Plug-In . SVG Version: 6.00 Build 0)  -->
<!DOCTYPE svg PUBLIC "-//W3C//DTD SVG 1.1//EN" "http://www.w3.org/Graphics/SVG/1.1/DTD/svg11.dtd">
<svg version="1.1" id="Layer_1" xmlns="http://www.w3.org/2000/svg" xmlns:xlink="http://www.w3.org/1999/xlink" x="0px" y="0px"
	 viewBox="0 0 69.9 57.1" enable-background="new 0 0 69.9 57.1" xml:space="preserve">
<g>
	<path fill="#E8511B" stroke="#E8511B" stroke-width="1.1232" stroke-miterlimit="10" d="M68.2,54.2c-0.6,0-1.2-0.5-1.2-1.2
		c0-5.6-9.3-10.4-15.2-10.4c-0.5,0-0.9-0.3-1.1-0.8L48.4,35c-0.2-0.6,0.1-1.3,0.7-1.5c0.6-0.2,1.3,0.1,1.5,0.7l2.1,6.2
		c6.9,0.4,16.6,5.7,16.6,12.7C69.4,53.7,68.9,54.2,68.2,54.2z"/>
	<path fill="#E8511B" stroke="#E8511B" stroke-width="1.1232" stroke-miterlimit="10" d="M44.9,35.8c-0.6,0-1.2-0.5-1.2-1.2
		s0.5-1.2,1.2-1.2c11.4,0,15.9-5.6,17.3-8.1c-1-1.8-3.9-6.7-4.5-9c-0.9-3.9-4-13-12.9-13c-0.6,0-1.2-0.5-1.2-1.2s0.5-1.2,1.2-1.2
		c7.4,0,12.9,5.4,15.1,14.7c0.5,1.9,3.4,7.1,4.5,8.9c0.2,0.3,0.2,0.8,0,1.1C63.4,28.2,58.5,35.8,44.9,35.8z"/>
	<path fill="#E8511B" stroke="#E8511B" stroke-width="1.1232" stroke-miterlimit="10" d="M26.2,40.4c-6.9,0-12.3-7.3-12.8-13.9
		c-2.4-0.4-3.5-1.9-3.5-3.4v-4.6c0-1.4,1.4-2.5,2.3-3v-3.9c0-4.1,1.4-8,11.3-8.1c3.3-2.4,6.6-2.9,8.7-2.9c4.1,0,7.7,1.9,9,4.7
		c1,2.1,0.6,4.5-1,6.6v3.5c0.9,0.5,2.3,1.6,2.3,3v4.6c0,1.5-1.1,3-3.5,3.4C38.5,33.1,33.1,40.4,26.2,40.4z M32.2,2.9
		c-1.8,0-4.7,0.5-7.6,2.6c-0.2,0.1-0.4,0.2-0.7,0.2c-9.3,0-9.3,3.2-9.3,5.8v4.6c0,0.5-0.3,0.9-0.7,1.1c-0.8,0.4-1.6,1-1.6,1.3v4.6
		c0,0.9,1.3,1.2,2.3,1.2c0.6,0,1.2,0.5,1.2,1.2c0,5.8,4.7,12.7,10.5,12.7s10.5-7,10.5-12.7c0-0.6,0.5-1.2,1.2-1.2
		c1.1,0,2.3-0.3,2.3-1.2v-4.6c0-0.3-0.9-0.9-1.6-1.3c-0.4-0.2-0.7-0.6-0.7-1.1v-4.6c0-0.3,0.1-0.5,0.3-0.7c1.3-1.5,1.6-3.1,1-4.5
		C38.2,4.2,35.4,2.9,32.2,2.9z"/>
	<path fill="#E8511B" stroke="#E8511B" stroke-width="1.1232" stroke-miterlimit="10" d="M1.7,56.6c-0.6,0-1.2-0.5-1.2-1.2v-2.3
		c0-6.7,5.4-11.5,12.8-11.5h2.9l3.3-4.9c0.4-0.5,1.1-0.7,1.6-0.3c0.5,0.4,0.7,1.1,0.3,1.6l-3.7,5.5c-0.2,0.3-0.6,0.5-1,0.5h-3.5
		c-6.2,0-10.5,3.8-10.5,9.2v2.3C2.9,56,2.4,56.6,1.7,56.6z"/>
	<path fill="#E8511B" stroke="#E8511B" stroke-width="1.1232" stroke-miterlimit="10" d="M50.7,56.6c-0.6,0-1.2-0.5-1.2-1.2v-2.3
		c0-5.4-4.2-9.2-10.3-9.2h-3.5c-0.4,0-0.7-0.2-1-0.5L31,37.9c-0.4-0.5-0.2-1.2,0.3-1.6c0.5-0.4,1.3-0.2,1.6,0.3l3.4,5h2.9
		c7.4,0,12.6,4.8,12.6,11.5v2.3C51.9,56,51.4,56.6,50.7,56.6z"/>
</g>
</svg>
