<?xml version="1.0" encoding="utf-8"?>
<!-- Generator: Adobe Illustrator 18.0.0, SVG Export Plug-In . SVG Version: 6.00 Build 0)  -->
<!DOCTYPE svg PUBLIC "-//W3C//DTD SVG 1.1//EN" "http://www.w3.org/Graphics/SVG/1.1/DTD/svg11.dtd">
<svg version="1.1" id="Layer_1" xmlns="http://www.w3.org/2000/svg" xmlns:xlink="http://www.w3.org/1999/xlink" x="0px" y="0px"
	 viewBox="0 0 60.4 50.2" enable-background="new 0 0 60.4 50.2" xml:space="preserve">
<path fill="#E8511B" stroke="#E8511B" stroke-width="1.1232" stroke-miterlimit="10" d="M44.9,4.4c2.8,0,5.6,1.1,7.8,3.2
	c4.3,4.3,4.3,11.3,0,15.6L40.5,35.5L38,38l-7.8,7.8L22.4,38l-2.5-2.5L7.6,23.3C3.3,18.9,3.3,12,7.6,7.6c2.2-2.2,5-3.2,7.8-3.2
	c2.2,0,4.5,0.7,6.4,2l0,0c0,0,0.2,0.2,0.6,0.5c0,0,0,0,0,0c2,1.5,7.8,6,7.8,7.7c0-1.6,5.8-6.2,7.8-7.7c0,0,0,0,0,0
	c0.4-0.3,0.6-0.5,0.6-0.5l0,0C40.5,5.1,42.7,4.4,44.9,4.4 M44.9,0.6c-3,0-5.8,0.9-8.3,2.5c-0.1,0.1-0.2,0.1-0.4,0.2
	c0,0-0.2,0.2-0.6,0.5c0,0-0.1,0.1-0.1,0.1c-2.3,1.8-4.1,3.2-5.4,4.5C30,8.2,29.8,8,29.6,7.8c-1.8-1.6-3.8-3.2-4.8-4
	c0,0-0.1,0-0.1-0.1c-0.4-0.3-0.7-0.5-0.7-0.5c-0.1-0.1-0.2-0.2-0.4-0.2c-2.5-1.6-5.3-2.5-8.3-2.5c-4,0-7.7,1.5-10.5,4.4
	c-2.8,2.8-4.4,6.6-4.4,10.5c0,4,1.5,7.7,4.4,10.5l12.2,12.2l2.5,2.5l7.8,7.8c0.7,0.7,1.7,1.1,2.7,1.1l0,0c1,0,2-0.4,2.7-1.1l7.8-7.8
	l2.5-2.5L55.4,26c2.8-2.8,4.4-6.6,4.4-10.5c0-4-1.5-7.7-4.4-10.5C52.6,2.1,48.9,0.6,44.9,0.6L44.9,0.6z"/>
</svg>
