<?xml version="1.0" encoding="utf-8"?>
<!-- Generator: Adobe Illustrator 18.0.0, SVG Export Plug-In . SVG Version: 6.00 Build 0)  -->
<!DOCTYPE svg PUBLIC "-//W3C//DTD SVG 1.1//EN" "http://www.w3.org/Graphics/SVG/1.1/DTD/svg11.dtd">
<svg version="1.1" id="Layer_1" xmlns="http://www.w3.org/2000/svg" xmlns:xlink="http://www.w3.org/1999/xlink" x="0px" y="0px"
	 viewBox="0 0 33.4 65.5" enable-background="new 0 0 33.4 65.5" xml:space="preserve">
<g>
	<path fill="#E8511B" stroke="#E8511B" stroke-width="1.1232" stroke-miterlimit="10" d="M26.7,52.6c-0.7-0.2-1.5,0.2-1.8,0.9
		c-0.2,0.7,0.2,1.5,0.9,1.8c2.8,0.9,4.1,2.1,4.1,2.8c0,1.6-5.3,4.1-13.3,4.1c-8,0-13.3-2.5-13.3-4.1c0-0.6,1.1-1.7,3.4-2.6
		c0.7-0.3,1.1-1.1,0.8-1.8c-0.3-0.7-1.1-1.1-1.8-0.8c-4.3,1.6-5.2,3.7-5.2,5.2c0,4.5,8.1,6.9,16.1,6.9c8,0,16.1-2.4,16.1-6.9
		C32.8,55.8,30.7,53.8,26.7,52.6z"/>
	<path fill="#E8511B" stroke="#E8511B" stroke-width="1.1232" stroke-miterlimit="10" d="M7.2,33.1L7.5,34
		c2.7,6.6,5.6,13.5,7.1,20.5v0.1c0,0.5,0.2,0.9,0.6,1.2c0.3,0.3,0.7,0.4,1.1,0.4c0.1,0,0.1,0,0.2,0c0.8-0.1,1.4-0.8,1.4-1.6v-0.1
		c1.6-7.3,4.6-14.6,7.5-21.5l0.5-1.3c0.4-1.1,0.9-2.2,1.4-3.3c1.2-2.7,2.5-5.6,3.3-8.6c0.7-2.7,0.8-5.1,0.3-7.4
		C29.7,5.6,23.5,0.6,16.3,0.6c-5.5,0-10.8,3.1-13.3,7.8c-3.8,7.1-0.4,14.5,2.6,21.1C6.1,30.7,6.7,31.9,7.2,33.1z M5.7,9.9
		c2-3.7,6.2-6.1,10.5-6.1c5.7,0,10.6,3.9,11.5,9.3c0.3,1.9,0.2,3.9-0.3,6.1c-0.7,2.7-1.9,5.4-3.1,8c-0.5,1.1-1,2.3-1.5,3.4l-0.5,1.3
		c-2.2,5.3-4.5,10.8-6.2,16.4c-1.6-5.3-3.7-10.4-5.8-15.4l-0.4-0.9c-0.5-1.2-1.1-2.5-1.7-3.7C5.6,22,2.7,15.6,5.7,9.9z"/>
	<path fill="#E8511B" stroke="#E8511B" stroke-width="1.1232" stroke-miterlimit="10" d="M16.4,22.4c4,0,7.3-3.3,7.3-7.3
		c0-4-3.3-7.3-7.3-7.3S9,11,9,15C9,19.1,12.3,22.4,16.4,22.4z M16.4,10.9c2.3,0,4.2,1.9,4.2,4.2c0,2.3-1.9,4.2-4.2,4.2
		c-2.3,0-4.2-1.9-4.2-4.2C12.2,12.7,14.1,10.9,16.4,10.9z"/>
</g>
</svg>
