<?xml version="1.0" encoding="utf-8"?>
<!-- Generator: Adobe Illustrator 18.0.0, SVG Export Plug-In . SVG Version: 6.00 Build 0)  -->
<!DOCTYPE svg PUBLIC "-//W3C//DTD SVG 1.1//EN" "http://www.w3.org/Graphics/SVG/1.1/DTD/svg11.dtd">
<svg version="1.1" id="Layer_1" xmlns="http://www.w3.org/2000/svg" xmlns:xlink="http://www.w3.org/1999/xlink" x="0px" y="0px"
	 viewBox="0 0 58.8 58.8" enable-background="new 0 0 58.8 58.8" xml:space="preserve">
<g>
	<path fill="#E8511B" stroke="#E8511B" stroke-width="0.5616" stroke-miterlimit="10" d="M6.8,15.6c0.9,0,1.6-0.7,1.6-1.6V1.9
		c0-0.9-0.7-1.6-1.6-1.6S5.1,1,5.1,1.9V14C5.1,14.9,5.9,15.6,6.8,15.6z"/>
	<path fill="#E8511B" stroke="#E8511B" stroke-width="0.5616" stroke-miterlimit="10" d="M11.6,15.6c0.9,0,1.6-0.7,1.6-1.6V1.9
		c0-0.9-0.7-1.6-1.6-1.6S10,1,10,1.9V14C10,14.9,10.7,15.6,11.6,15.6z"/>
	<path fill="#E8511B" stroke="#E8511B" stroke-width="0.5616" stroke-miterlimit="10" d="M16.5,0.3c-0.9,0-1.6,0.7-1.6,1.6v13.8
		c0,2.4-1.5,4.5-3.8,5.3c-0.6,0.2-1.1,0.8-1.1,1.5v32c0,0.4-0.4,0.8-0.8,0.8s-0.8-0.4-0.8-0.8v-32c0-0.7-0.4-1.3-1.1-1.5
		C5,20.2,3.5,18,3.5,15.6V1.9c0-0.9-0.7-1.6-1.6-1.6S0.3,1,0.3,1.9v13.8c0,3.4,1.9,6.4,4.9,7.9v30.9c0,2.2,1.8,4,4,4s4-1.8,4-4V23.6
		c2.9-1.5,4.9-4.6,4.9-7.9V1.9C18.1,1,17.4,0.3,16.5,0.3z"/>
	<path fill="#E8511B" stroke="#E8511B" stroke-width="0.5616" stroke-miterlimit="10" d="M29.4,0.3c-3.6,0-6.5,2.9-6.5,6.5v17
		c0,3,2.1,5.5,4.9,6.3v24.5c0,2.2,1.8,4,4,4s4-1.8,4-4V6.8C35.9,3.2,33,0.3,29.4,0.3z M32.6,54.5c0,0.4-0.4,0.8-0.8,0.8
		S31,54.9,31,54.5V28.6c0-0.9-0.7-1.6-1.6-1.6c-1.8,0-3.2-1.5-3.2-3.2v-17c0-1.8,1.5-3.2,3.2-3.2c1.8,0,3.2,1.5,3.2,3.2V54.5z"/>
	<path fill="#E8511B" stroke="#E8511B" stroke-width="0.5616" stroke-miterlimit="10" d="M49.6,0.3c-5.5,0-8.9,9.6-8.9,13.8v1.6
		c0,3.4,1.9,6.4,4.9,7.9v30.9c0,2.2,1.8,4,4,4s4-1.8,4-4V23.6c2.9-1.5,4.9-4.6,4.9-7.9V14C58.5,9.8,55.2,0.3,49.6,0.3z M55.3,15.6
		c0,2.4-1.5,4.5-3.8,5.3c-0.6,0.2-1.1,0.8-1.1,1.5v32c0,0.4-0.4,0.8-0.8,0.8s-0.8-0.4-0.8-0.8v-32c0-0.7-0.4-1.3-1.1-1.5
		C45.5,20.2,44,18,44,15.6V14c0-3.7,3-10.5,5.7-10.5s5.7,6.9,5.7,10.5V15.6z"/>
</g>
</svg>
